# xmcd
# 
# Track frame offsets:
#     150
#     12517
#     27876
#     39405
#     59128
#     79261
#     88973
# 
# Disc length: 1430
# 
# Revision: 0
# Processed by: cddbd v1.5.2PL0 Copyright (c) Steve Scherf et al.
# Submitted via: fre:ac v1.0.31
# 
DISCID=59059407
DTITLE=Tex Miller - Prisoner To The Blues
DYEAR=2014
DGENRE=Blues
TTITLE0=On The Track
TTITLE1=Crying Shame
TTITLE2=Milkcow Blues
TTITLE3=Ghost Town
TTITLE4=Walk The Streets
TTITLE5=Waitin' For the Bus
TTITLE6=Prisoner To The Blues
EXTD=
EXTT0=
EXTT1=
EXTT2=
EXTT3=
EXTT4=
EXTT5=
EXTT6=
PLAYORDER=
